<?xml version="1.0" standalone="no"?>
<!DOCTYPE svg PUBLIC "-//W3C//DTD SVG 20010904//EN"
 "http://www.w3.org/TR/2001/REC-SVG-20010904/DTD/svg10.dtd">
<svg version="1.0" xmlns="http://www.w3.org/2000/svg"
 width="445.000000pt" height="445.000000pt" viewBox="0 0 445.000000 445.000000"
 preserveAspectRatio="xMidYMid meet">
<metadata>
Created by potrace 1.11, written by Peter Selinger 2001-2013
</metadata>
<g transform="translate(0.000000,445.000000) scale(0.100000,-0.100000)"
fill="#000000" stroke="none">
<path d="M2155 4431 c-16 -4 -46 -16 -65 -26 -54 -28 -990 -566 -1309 -752
l-94 -55 89 -50 c49 -27 133 -72 186 -99 l98 -49 87 52 c49 28 96 51 106 51 9
-1 15 2 12 7 -3 4 141 92 319 194 l324 186 65 0 64 0 5 -511 c6 -587 -8 -515
114 -578 l67 -34 86 46 86 46 3 515 2 516 71 0 72 0 181 -104 c99 -57 291
-167 424 -245 l244 -142 164 88 c173 93 200 110 193 118 -4 4 -803 465 -974
562 -33 19 -65 39 -70 46 -6 7 -17 13 -25 15 -8 2 -89 46 -180 98 -190 108
-253 127 -345 105z"/>
<path d="M350 3392 c-17 -20 -41 -57 -53 -82 l-22 -45 0 -1035 0 -1035 26 -55
c14 -30 43 -70 65 -89 21 -18 183 -117 359 -218 176 -102 390 -226 475 -275
85 -50 183 -107 218 -127 35 -20 71 -40 80 -46 10 -5 49 -28 87 -49 39 -22
167 -95 285 -164 118 -69 233 -131 255 -139 57 -20 156 -18 209 6 35 15 383
211 586 330 19 11 58 33 85 49 28 15 127 73 220 127 94 54 187 108 207 119 98
55 541 314 595 349 35 21 72 51 84 65 11 15 23 25 26 22 4 -3 7 4 9 15 2 11 8
38 14 60 7 28 10 350 8 1075 l-3 1036 -33 54 c-64 105 -32 108 -279 -25 -120
-65 -247 -134 -283 -153 -36 -19 -87 -47 -115 -62 -27 -15 -86 -47 -130 -70
-44 -24 -127 -69 -185 -100 -58 -31 -134 -73 -170 -92 -115 -62 -410 -223
-575 -313 -88 -48 -164 -87 -170 -87 -11 0 -209 105 -825 440 -228 124 -541
293 -695 377 -154 84 -290 157 -302 164 -19 10 -25 7 -53 -27z m635 -699 c138
-74 255 -140 260 -147 6 -6 17 -12 25 -14 13 -3 362 -189 670 -357 l95 -52 3
-812 c1 -513 -1 -811 -7 -811 -6 0 -252 140 -548 311 -296 171 -578 334 -627
362 -88 50 -88 51 -67 68 12 10 92 56 179 102 86 46 173 93 192 104 19 11 176
95 348 188 274 147 312 171 296 182 -9 7 -93 53 -186 104 l-170 91 -61 -33
c-34 -18 -163 -87 -287 -154 -124 -67 -265 -144 -315 -170 -49 -27 -99 -54
-110 -62 -11 -7 -23 -13 -27 -13 -5 0 -8 293 -8 651 l0 651 48 -27 c26 -15
160 -88 297 -162z m2825 -468 c0 -355 -2 -645 -5 -645 -3 0 -112 58 -243 129
-313 170 -434 236 -507 272 l-60 30 -100 -54 c-55 -30 -135 -74 -177 -98 -43
-23 -78 -45 -78 -48 0 -4 26 -22 58 -40 100 -58 284 -162 367 -206 44 -24 139
-74 210 -112 317 -170 405 -218 405 -223 0 -7 7 -3 -340 -202 -168 -97 -375
-216 -460 -265 -356 -207 -469 -270 -475 -265 -3 3 -5 369 -5 813 l0 807 333
180 c182 99 361 196 397 215 36 19 137 74 225 122 222 121 288 153 303 148 7
-3 11 0 10 6 -3 11 108 80 130 81 9 0 12 -136 12 -645z"/>
</g>
</svg>
